<svg xmlns="http://www.w3.org/2000/svg" width="600" height="200" viewBox="0 0 600 200">
  <!-- 소화기내과 진료 아이콘 -->
  <g id="digestive" transform="translate(50, 100)">
    <circle cx="0" cy="0" r="40" fill="#4a90e2" opacity="0.2" />
    <g transform="translate(-16, -16)" fill="#4a90e2">
      <path d="M8 16a6 6 0 0 1 6-6h1.018a.5.5 0 0 1 .2.04l2.225.887c.51.204.78.779.78 1.128v5.538l4.196-5.5a.5.5 0 0 1 .392-.189l3.8-.189a.5.5 0 0 1 .392.807l-2.3 3.006 1.933 2.668A1 1 0 0 1 26.75 19h-2.981a1 1 0 0 1-.827-.44l-1.425-1.969-2.017 2.63v1.23a.5.5 0 0 1-.146.354l-.915.914a.5.5 0 0 1-.708 0l-.914-.914a.5.5 0 0 1-.147-.354V16zM6.161 20.5a.5.5 0 0 1-.5-.5v-2.69l-1.066 1.269a.5.5 0 0 1-.771-.062l-.657-.9a.5.5 0 0 1 .035-.636l1.722-1.975-1.603-2.204a.5.5 0 0 1 .81-.584l1.53 2.162 1.81-2.062a.5.5 0 0 1 .376-.167h2.1a.5.5 0 0 1 .5.5v5.85a.5.5 0 0 1-.5.5h-3.786zm7.5-8.5a1 1 0 1 0 0-2 1 1 0 0 0 0 2zm1.5 0a1 1 0 1 0 0-2 1 1 0 0 0 0 2zm-3 0a1 1 0 1 0 0-2 1 1 0 0 0 0 2z"/>
    </g>
  </g>
  
  <!-- 내시경 검사 아이콘 -->
  <g id="endoscopy" transform="translate(200, 100)">
    <circle cx="0" cy="0" r="40" fill="#5cb85c" opacity="0.2" />
    <g transform="translate(-16, -16)" fill="#5cb85c">
      <path d="M16 8.5a.5.5 0 0 1-.5.5h-5a.5.5 0 0 1 0-1h5a.5.5 0 0 1 .5.5m0 2a.5.5 0 0 1-.5.5h-5a.5.5 0 0 1 0-1h5a.5.5 0 0 1 .5.5m0 2a.5.5 0 0 1-.5.5h-5a.5.5 0 0 1 0-1h5a.5.5 0 0 1 .5.5m0 2a.5.5 0 0 1-.5.5h-5a.5.5 0 0 1 0-1h5a.5.5 0 0 1 .5.5M3 14s-1 0-1-1 1-4 6-4 6 3 6 4-1 1-1 1zm8-6.5a.5.5 0 0 1-.5.5h-5a.5.5 0 0 1 0-1h5a.5.5 0 0 1 .5.5M3 9.5a.5.5 0 0 1-.5.5h-2a.5.5 0 0 1 0-1h2a.5.5 0 0 1 .5.5m0 2a.5.5 0 0 1-.5.5h-2a.5.5 0 0 1 0-1h2a.5.5 0 0 1 .5.5m0 2a.5.5 0 0 1-.5.5h-2a.5.5 0 0 1 0-1h2a.5.5 0 0 1 .5.5m0 2a.5.5 0 0 1-.5.5h-2a.5.5 0 0 1 0-1h2a.5.5 0 0 1 .5.5"/>
    </g>
  </g>
  
  <!-- 건강검진 아이콘 -->
  <g id="checkup" transform="translate(350, 100)">
    <circle cx="0" cy="0" r="40" fill="#f0ad4e" opacity="0.2" />
    <g transform="translate(-16, -16)" fill="#f0ad4e">
      <path d="M9.5 0a.5.5 0 0 1 .5.5.5.5 0 0 0 .5.5.5.5 0 0 1 .5.5V2a.5.5 0 0 1-.5.5h-5A.5.5 0 0 1 5 2v-.5a.5.5 0 0 1 .5-.5.5.5 0 0 0 .5-.5.5.5 0 0 1 .5-.5z"/>
      <path d="M3 2.5a.5.5 0 0 1 .5-.5h9a.5.5 0 0 1 .5.5v7a.5.5 0 0 1-.5.5h-9a.5.5 0 0 1-.5-.5zm8.5 5v-5h-7v5a.5.5 0 0 0 .5.5h6a.5.5 0 0 0 .5-.5m-2-3.5a.5.5 0 0 0-.5.5v3a.5.5 0 0 0 .5.5h1a.5.5 0 0 0 .5-.5v-3a.5.5 0 0 0-.5-.5z"/>
    </g>
  </g>
  
  <!-- 내과진료 아이콘 -->
  <g id="general" transform="translate(500, 100)">
    <circle cx="0" cy="0" r="40" fill="#d9534f" opacity="0.2" />
    <g transform="translate(-16, -16)" fill="#d9534f">
      <path d="M7.5 2a.5.5 0 0 0-.5.5v3a.5.5 0 0 0 .5.5h1a.5.5 0 0 0 .5-.5v-3a.5.5 0 0 0-.5-.5z"/>
      <path d="M4 1.5H3a2 2 0 0 0-2 2V14a2 2 0 0 0 2 2h10a2 2 0 0 0 2-2V3.5a2 2 0 0 0-2-2h-1v-1a.5.5 0 0 0-.5-.5h-5a.5.5 0 0 0-.5.5zm.5 3h5a.5.5 0 0 1 0 1h-5a.5.5 0 0 1 0-1m0 3h5a.5.5 0 0 1 0 1h-5a.5.5 0 0 1 0-1m0 3h5a.5.5 0 0 1 0 1h-5a.5.5 0 0 1 0-1"/>
    </g>
  </g>
</svg> 